<svg version="1.0" xmlns="http://www.w3.org/2000/svg" width="1412" height="1438.667" viewBox="0 0 1059 1079"><g fill="#FFF"><path d="M514 32.1c-25.9.7-28.5.9-54.5 4.5-134.6 18.7-255.6 90.2-336.8 198.9-48.3 64.6-80.9 140.8-94.1 220-5.7 34-7.5 63.4-6.4 102 .7 24.5 2.4 41.8 6.4 65.8C63.6 832 223.9 996.8 432 1037.9c54.5 10.7 119.3 12.2 173.5 4 91.3-13.8 178.7-52.9 249-111.4 57-47.4 100.6-103.1 133.1-170 36.5-75.3 53.5-156.3 50.3-240.6-5.6-147.9-75.1-285.1-191.2-377.7C774 84.3 686 47.2 594 35.6c-28.7-3.6-46.1-4.4-80-3.5zm60 20.8c23.5 2.6 29.7 3.5 44.5 6.2 65.1 12.1 128.1 37.6 183 74.2C864 175 917.4 232.2 954.5 297c110.6 193.7 76.3 437.2-83.6 592.5-74 71.9-170 119.2-270.9 133.4-27.5 3.8-37.3 4.5-70 4.5-41.7.1-67.8-2.7-107-11.4-165.9-36.8-300.9-158.1-356-319.6-48.4-142-28.2-299.9 54.4-425.2 19.1-28.9 36.9-50.6 63.1-76.8 36.5-36.5 70.3-61.5 119-87.8 18.8-10.2 53.6-24.7 76.8-32 43.1-13.6 73.2-19.1 124.2-23 8.6-.7 60.6.3 69.5 1.3z"/><path d="M499.8 151.6c-4.3 3.6-7.8 7-7.8 7.7 0 .7 2.3 3.7 5 6.7 4.4 5 5.1 5.4 6.9 4.2 1.2-.6 2.3-1.2 2.6-1.2.3 0 .5 14.8.5 33v33h16v-90h-15.5l-7.7 6.6zM540.5 146.8c-7.1 3.4-11.5 10.3-11.5 18.1 0 4.8 1.3 5.4 10.5 4.9l6-.3.5-3.5c.5-3.5.6-3.5 5.9-3.8 3.7-.2 5.7.1 6.2 1 1.4 2.1 1.1 20.2-.3 21.6-.7.7-3.9 1.2-7.5 1.2-10.3 0-18 5.3-20.3 14-.6 2.2-.9 10.7-.8 19.2l.3 15.3h46l.3-7.8.3-7.7h-13.8c-7.6 0-14.4-.4-15.1-.9-.9-.5-1.2-2.8-1-7.7l.3-6.9 7.1-.7c8.4-.8 11-1.7 15.2-5.3 6-5 6.7-7.4 6.7-23.5 0-13.5-.2-14.8-2.4-18.7-1.4-2.4-4.2-5.5-6.4-7-3.6-2.5-5.1-2.8-13.1-3.1-7.3-.2-9.9.1-13.1 1.6zM331.8 202.6c-4.3 3.6-7.8 7-7.8 7.7 0 .7 2.3 3.7 5 6.7 4.4 5 5.1 5.4 6.9 4.2 1.2-.6 2.3-1.2 2.6-1.2.3 0 .5 14.8.5 33v33h16v-90h-15.5l-7.7 6.6zM369 202.5c-4.1 3.5-7.6 6.8-7.8 7.3-.4 1.3 9 12.2 10.5 12.2.6 0 1.5-.5 1.8-1 2.1-3.4 2.5 1.6 2.5 32v33.1l8.3-.3 8.2-.3v-89l-8-.2-8-.3-7.5 6.5zM710.8 203.6c-4.3 3.6-7.8 7-7.8 7.7 0 .7 2.3 3.7 5 6.7 4.4 5 5.1 5.4 6.9 4.2 1.2-.6 2.3-1.2 2.6-1.2.3 0 .5 14.8.5 33v33h16v-90h-15.5l-7.7 6.6zM199.8 315.6c-4.3 3.6-7.8 7-7.8 7.7 0 .7 2.3 3.7 5 6.7 4.4 5 5.1 5.4 6.9 4.2 1.2-.6 2.3-1.2 2.6-1.2.3 0 .5 14.8.5 33v33h16v-90h-15.5l-7.7 6.6zM240.5 310.9c-4.8 2.2-7.9 5.4-10 10.3-2.2 5.5-2.2 60.1 0 65.6 3.6 8.5 10.1 12.1 21.8 12.2 11.5 0 16.8-2.6 21.1-10.5 2-3.8 2.1-5.2 2.1-34.5 0-30.3 0-30.5-2.4-34.7-4.3-7.5-10.2-10.3-21.5-10.3-4.8 0-8.4.7-11.1 1.9zm16.5 15.4c0 .2-2.5 5.1-5.5 10.8l-5.5 10.4v-10.1c0-5.5.3-10.4.7-10.7.6-.7 10.3-1 10.3-.4zm1.6 54.4c-.5 1.2-10.6 2-10.6.8 0-.3 2.4-5.1 5.3-10.8l5.2-10.2.3 9.4c.1 5.2.1 10-.2 10.8zM846 341.2c-2.4 1.3-5.8 4-7.4 6.1-2.7 3.4-3.1 4.7-3.1 10v6.2l6.8.3c7.6.3 9.4-.5 9.9-4.6.3-2.5.7-2.7 5.1-3 7.1-.5 7.7.5 7.7 11 0 12.1-.5 12.8-8.5 12.8-7.8 0-10.3.9-15.3 5.4-5.6 5.1-6.4 8.5-6 27.1l.3 16 22.8.3 22.7.2v-15.9l-14.2-.3-14.3-.3v-15l4-.3c12.2-.8 18.9-4.1 22.5-11.2 1.7-3.4 2-5.9 2-17.9 0-7.7-.5-15.2-1.1-16.8-1.5-4-5.7-8.2-10.4-10.4-6-2.8-17.7-2.6-23.5.3zM146.5 491.4c-4.2 1.9-8.5 6.3-10.1 10.2-.9 2.1-1.4 7.2-1.4 14.1 0 8.8.4 11.4 2.1 15.1 3.2 6.6 8.4 9.6 18.2 10.3 5.2.4 8.2 1 8.8 2 1.3 2.1 1.1 17.3-.3 18.7-1.6 1.6-10.7 1.6-11.2-.1-.3-.6-.7-2.5-1-4l-.7-2.8-7.7.3-7.7.3-.3 4.7c-.2 3.2.3 5.9 1.7 8.5 4.1 8 10.2 11.3 21.4 11.3 8.8 0 14.5-2.5 19.1-8.3l3.1-3.9.3-31.6c.2-17.5 0-32.7-.3-33.9-.8-3.3-6.5-9.4-10.2-10.9-4.3-1.8-19.8-1.8-23.8 0zm16.6 15.6c1.6.9 1.9 2.2 1.9 8 0 7.9-1.3 10-6.5 10-6.2 0-6.5-.4-6.5-9.5 0-7.1.3-8.4 1.8-8.8 3.2-.9 7.3-.7 9.3.3zM889 492.2c-2.4 1.3-5.8 4-7.4 6.1-2.9 3.6-3.1 4.5-3.1 11.5v7.7l7.7.3c8.5.3 8.3.5 9-7.3.3-2.8.6-3 5.1-3.3 2.7-.2 5.5.2 6.3.9 1.6 1.3 2 14.4.4 16.9-.6 1-3.3 1.7-8.7 2l-7.8.5v15l7.5.3c5.6.2 7.8.7 8.8 1.9 1.4 1.9 1.7 15 .3 17.1-.5.9-2.5 1.2-6.2 1l-5.4-.3-.6-3.9c-.8-4.8-2-5.6-8.9-5.6-7.8 0-8.3.6-7.8 8.3.4 7.4 2.9 11.8 8.7 15.8 3.3 2.2 4.6 2.4 14.3 2.4 10.2 0 10.8-.1 14.9-3 6.7-4.8 7.9-8 7.9-21.8 0-7.5-.5-12.9-1.3-15-1.1-2.6-1.1-3.7-.1-6.2 1.8-4.2 1.8-27.5 0-31.8-1.7-4.1-6.6-8.8-10.8-10.4-1.8-.6-6.7-1.2-10.8-1.2-6-.1-8.5.4-12 2.1zM183 648.2c-2.4 1.3-5.8 4-7.4 6.1-3.1 3.8-3.1 4-3.4 17.6-.3 10.8 0 14.6 1.2 17.5 1.4 3.3 1.4 4.1.1 6.6-2 3.9-2.1 24.7-.1 29.3 1.6 3.9 6.1 8.2 9.9 9.6 1.6.6 6.8 1.1 11.7 1.1 4.9 0 10.1-.5 11.7-1.1 3.4-1.3 8-5.5 9.9-9.1 2-3.9 2-25.8-.1-29.8-1.4-2.7-1.4-3.3 0-6 1.8-3.5 2.1-27.2.4-31.7-1.5-4-5.7-8.2-10.4-10.4-6-2.8-17.7-2.6-23.5.3zm17.8 16c1.4 1.4 1.7 16.5.3 18.6-.5.9-2.5 1.2-6.2 1l-5.4-.3-.3-8.9c-.2-4.9-.1-9.5.2-10.3.7-1.7 9.7-1.8 11.4-.1zm-.4 38.4c1.1 1.1 1.6 3.5 1.6 7.9 0 7.4-1.4 9.5-6.5 9.5-6.2 0-6.5-.4-6.5-9.5 0-5.7.4-8.5 1.3-8.8 2.7-1.2 8.6-.6 10.1.9zM849.1 693.6L834 714.4V731h31v32.1l8.3-.3 8.2-.3v-89l-8.7-.3-8.6-.3-15.1 20.7zM865 708v6h-4.5c-2.5 0-4.5-.2-4.5-.5 0-.7 8.1-11.5 8.6-11.5.2 0 .4 2.7.4 6zM319 813v8h13.9c10.1 0 14.1.3 14.9 1.3.8.9-1.9 10.4-10.4 36-6.2 19.1-11.4 35.2-11.4 35.8 0 .6 3.4.9 8.7.7l8.7-.3 10.8-32.5 10.8-32.5-.3-12-.2-12-22.7-.3-22.8-.2v8zM696.7 805.7c-.4.3-.7 9-.7 19.3 0 17.3.2 18.9 2.3 23 3.4 6.9 8.9 10.1 17.9 10.7 5 .4 7.7 1 8.6 2.1 1.6 2 1.6 14.4 0 16-1.6 1.6-10.7 1.6-11.2-.1-.3-.6-.7-2.5-1-4l-.7-2.8-7.7.3-7.7.3v6.2c0 5.3.4 6.6 3.1 10 4.7 5.9 10.3 8.3 19.4 8.3 8.5 0 13.9-2 18.2-6.6 4-4.4 4.8-7.5 4.8-19.9 0-12.4-.8-15.6-4.8-19.8-4.2-4.4-8.1-6-16.2-6.6l-7.5-.6v-20l14.3-.3 14.2-.3V805h-22.3c-12.3 0-22.7.3-23 .7zM515 849.2c-2.4 1.3-5.8 4-7.4 6.1l-3.1 3.9-.3 30.6c-.2 16.9 0 32.2.3 34 .8 4.5 6.8 10.9 11.4 12.3 2.1.6 7.8 1 12.8.8 8-.4 9.4-.7 13.2-3.3 6.7-4.7 8.1-8.5 8.1-22.1 0-11.8-.8-15.3-4.9-19.9-2.8-3.2-8.6-5.5-16.2-6.3l-7.4-.8v-20l4.8-.3c5.5-.4 7.4.8 7.9 4.6.3 2.7.4 2.7 7.8 2.7h7.5l.3-3.4c.8-8.4-3.4-15.7-11.3-19.2-6-2.8-17.8-2.6-23.5.3zm17.4 54.4c1.1 1.1 1.6 3.5 1.6 7.9 0 7.4-1.4 9.5-6.5 9.5-6.2 0-6.5-.4-6.5-9.5 0-5.7.4-8.5 1.3-8.8 2.7-1.2 8.6-.6 10.1.9z"/></g></svg>