<?xml version="1.0" standalone="no"?>
<!DOCTYPE svg PUBLIC "-//W3C//DTD SVG 20010904//EN"
 "http://www.w3.org/TR/2001/REC-SVG-20010904/DTD/svg10.dtd">
<svg version="1.0" xmlns="http://www.w3.org/2000/svg"
 width="1059.000000pt" height="1079.000000pt" viewBox="0 0 1059.000000 1079.000000"
 preserveAspectRatio="xMidYMid meet">

<g transform="translate(0.000000,1079.000000) scale(0.100000,-0.100000)"
fill="#FFFFFF" stroke="none">
<path d="M5140 10469 c-259 -7 -285 -9 -545 -45 -1346 -187 -2556 -902 -3368
-1989 -483 -646 -809 -1408 -941 -2200 -57 -340 -75 -634 -64 -1020 7 -245 24
-418 64 -658 350 -2087 1953 -3735 4034 -4146 545 -107 1193 -122 1735 -40
913 138 1787 529 2490 1114 570 474 1006 1031 1331 1700 365 753 535 1563 503
2406 -56 1479 -751 2851 -1912 3777 -727 579 -1607 950 -2527 1066 -287 36
-461 44 -800 35z m600 -208 c235 -26 297 -35 445 -62 651 -121 1281 -376 1830
-742 625 -417 1159 -989 1530 -1637 1106 -1937 763 -4372 -836 -5925 -740
-719 -1700 -1192 -2709 -1334 -275 -38 -373 -45 -700 -45 -417 -1 -678 27
-1070 114 -1659 368 -3009 1581 -3560 3196 -484 1420 -282 2999 544 4252 191
289 369 506 631 768 365 365 703 615 1190 878 188 102 536 247 768 320 431
136 732 191 1242 230 86 7 606 -3 695 -13z"/>
<path d="M4998 9274 c-43 -36 -78 -70 -78 -77 0 -7 23 -37 50 -67 44 -50 51
-54 69 -42 12 6 23 12 26 12 3 0 5 -148 5 -330 l0 -330 80 0 80 0 0 450 0 450
-77 0 -78 0 -77 -66z"/>
<path d="M5405 9322 c-71 -34 -115 -103 -115 -181 0 -48 13 -54 105 -49 l60 3
5 35 c5 35 6 35 59 38 37 2 57 -1 62 -10 14 -21 11 -202 -3 -216 -7 -7 -39
-12 -75 -12 -103 0 -180 -53 -203 -140 -6 -22 -9 -107 -8 -192 l3 -153 230 0
230 0 3 78 3 77 -138 0 c-76 0 -144 4 -151 9 -9 5 -12 28 -10 77 l3 69 71 7
c84 8 110 17 152 53 60 50 67 74 67 235 0 135 -2 148 -24 187 -14 24 -42 55
-64 70 -36 25 -51 28 -131 31 -73 2 -99 -1 -131 -16z"/>
<path d="M3318 8764 c-43 -36 -78 -70 -78 -77 0 -7 23 -37 50 -67 44 -50 51
-54 69 -42 12 6 23 12 26 12 3 0 5 -148 5 -330 l0 -330 80 0 80 0 0 450 0 450
-77 0 -78 0 -77 -66z"/>
<path d="M3690 8765 c-41 -35 -76 -68 -78 -73 -4 -13 90 -122 105 -122 6 0 15
5 18 10 21 34 25 -16 25 -320 l0 -331 83 3 82 3 0 445 0 445 -80 2 -80 3 -75
-65z"/>
<path d="M7108 8754 c-43 -36 -78 -70 -78 -77 0 -7 23 -37 50 -67 44 -50 51
-54 69 -42 12 6 23 12 26 12 3 0 5 -148 5 -330 l0 -330 80 0 80 0 0 450 0 450
-77 0 -78 0 -77 -66z"/>
<path d="M1998 7634 c-43 -36 -78 -70 -78 -77 0 -7 23 -37 50 -67 44 -50 51
-54 69 -42 12 6 23 12 26 12 3 0 5 -148 5 -330 l0 -330 80 0 80 0 0 450 0 450
-77 0 -78 0 -77 -66z"/>
<path d="M2405 7681 c-48 -22 -79 -54 -100 -103 -22 -55 -22 -601 0 -656 36
-85 101 -121 218 -122 115 0 168 26 211 105 20 38 21 52 21 345 0 303 0 305
-24 347 -43 75 -102 103 -215 103 -48 0 -84 -7 -111 -19z m165 -154 c0 -2 -25
-51 -55 -108 l-55 -104 0 101 c0 55 3 104 7 107 6 7 103 10 103 4z m16 -544
c-5 -12 -106 -20 -106 -8 0 3 24 51 53 108 l52 102 3 -94 c1 -52 1 -100 -2
-108z"/>
<path d="M8460 7378 c-24 -13 -58 -40 -74 -61 -27 -34 -31 -47 -31 -100 l0
-62 68 -3 c76 -3 94 5 99 46 3 25 7 27 51 30 71 5 77 -5 77 -110 0 -121 -5
-128 -85 -128 -78 0 -103 -9 -153 -54 -56 -51 -64 -85 -60 -271 l3 -160 228
-3 227 -2 0 80 0 79 -142 3 -143 3 0 75 0 75 40 3 c122 8 189 41 225 112 17
34 20 59 20 179 0 77 -5 152 -11 168 -15 40 -57 82 -104 104 -60 28 -177 26
-235 -3z"/>
<path d="M1465 5876 c-42 -19 -85 -63 -101 -102 -9 -21 -14 -72 -14 -141 0
-88 4 -114 21 -151 32 -66 84 -96 182 -103 52 -4 82 -10 88 -20 13 -21 11
-173 -3 -187 -16 -16 -107 -16 -112 1 -3 6 -7 25 -10 40 l-7 28 -77 -3 -77 -3
-3 -47 c-2 -32 3 -59 17 -85 41 -80 102 -113 214 -113 88 0 145 25 191 83 l31
39 3 316 c2 175 0 327 -3 339 -8 33 -65 94 -102 109 -43 18 -198 18 -238 0z
m166 -156 c16 -9 19 -22 19 -80 0 -79 -13 -100 -65 -100 -62 0 -65 4 -65 95 0
71 3 84 18 88 32 9 73 7 93 -3z"/>
<path d="M8890 5868 c-24 -13 -58 -40 -74 -61 -29 -36 -31 -45 -31 -115 l0
-77 77 -3 c85 -3 83 -5 90 73 3 28 6 30 51 33 27 2 55 -2 63 -9 16 -13 20
-144 4 -169 -6 -10 -33 -17 -87 -20 l-78 -5 0 -75 0 -75 75 -3 c56 -2 78 -7
88 -19 14 -19 17 -150 3 -171 -5 -9 -25 -12 -62 -10 l-54 3 -6 39 c-8 48 -20
56 -89 56 -78 0 -83 -6 -78 -83 4 -74 29 -118 87 -158 33 -22 46 -24 143 -24
102 0 108 1 149 30 67 48 79 80 79 218 0 75 -5 129 -13 150 -11 26 -11 37 -1
62 18 42 18 275 0 318 -17 41 -66 88 -108 104 -18 6 -67 12 -108 12 -60 1 -85
-4 -120 -21z"/>
<path d="M1830 4308 c-24 -13 -58 -40 -74 -61 -31 -38 -31 -40 -34 -176 -3
-108 0 -146 12 -175 14 -33 14 -41 1 -66 -20 -39 -21 -247 -1 -293 16 -39 61
-82 99 -96 16 -6 68 -11 117 -11 49 0 101 5 117 11 34 13 80 55 99 91 20 39
20 258 -1 298 -14 27 -14 33 0 60 18 35 21 272 4 317 -15 40 -57 82 -104 104
-60 28 -177 26 -235 -3z m178 -160 c14 -14 17 -165 3 -186 -5 -9 -25 -12 -62
-10 l-54 3 -3 89 c-2 49 -1 95 2 103 7 17 97 18 114 1z m-4 -384 c11 -11 16
-35 16 -79 0 -74 -14 -95 -65 -95 -62 0 -65 4 -65 95 0 57 4 85 13 88 27 12
86 6 101 -9z"/>
<path d="M8491 3854 l-151 -208 0 -83 0 -83 155 0 155 0 0 -160 0 -161 83 3
82 3 0 445 0 445 -87 3 -86 3 -151 -207z m159 -144 l0 -60 -45 0 c-25 0 -45 2
-45 5 0 7 81 115 86 115 2 0 4 -27 4 -60z"/>
<path d="M3190 2660 l0 -80 139 0 c101 0 141 -3 149 -13 8 -9 -19 -104 -104
-360 -62 -191 -114 -352 -114 -358 0 -6 34 -9 87 -7 l87 3 108 325 108 325 -3
120 -2 120 -227 3 -228 2 0 -80z"/>
<path d="M6967 2733 c-4 -3 -7 -90 -7 -193 0 -173 2 -189 23 -230 34 -69 89
-101 179 -107 50 -4 77 -10 86 -21 16 -20 16 -144 0 -160 -16 -16 -107 -16
-112 1 -3 6 -7 25 -10 40 l-7 28 -77 -3 -77 -3 0 -62 c0 -53 4 -66 31 -100 47
-59 103 -83 194 -83 85 0 139 20 182 66 40 44 48 75 48 199 0 124 -8 156 -48
198 -42 44 -81 60 -162 66 l-75 6 0 100 0 100 143 3 142 3 0 79 0 80 -223 0
c-123 0 -227 -3 -230 -7z"/>
<path d="M5150 2298 c-24 -13 -58 -40 -74 -61 l-31 -39 -3 -306 c-2 -169 0
-322 3 -340 8 -45 68 -109 114 -123 21 -6 78 -10 128 -8 80 4 94 7 132 33 67
47 81 85 81 221 0 118 -8 153 -49 199 -28 32 -86 55 -162 63 l-74 8 0 100 0
100 48 3 c55 4 74 -8 79 -46 3 -27 4 -27 78 -27 l75 0 3 34 c8 84 -34 157
-113 192 -60 28 -178 26 -235 -3z m174 -544 c11 -11 16 -35 16 -79 0 -74 -14
-95 -65 -95 -62 0 -65 4 -65 95 0 57 4 85 13 88 27 12 86 6 101 -9z"/>
</g>
</svg>
